<?xml version="1.0" encoding="utf-8"?>
<!-- Generator: Adobe Illustrator 16.0.0, SVG Export Plug-In . SVG Version: 6.00 Build 0)  -->
<!DOCTYPE svg PUBLIC "-//W3C//DTD SVG 1.1//EN" "http://www.w3.org/Graphics/SVG/1.1/DTD/svg11.dtd">
<svg version="1.1" id="Isolation_Mode" xmlns="http://www.w3.org/2000/svg" xmlns:xlink="http://www.w3.org/1999/xlink" x="0px"
	 y="0px" width="66px" height="38px" viewBox="0 0 66 38" enable-background="new 0 0 66 38" xml:space="preserve">
<path fill="#FFFFFF" d="M6,4h54c2.761,0,5,2.239,5,5v18c0,2.761-2.239,5-5,5H6c-2.761,0-5-2.239-5-5V9C1,6.239,3.239,4,6,4"/>
<path fill="#9FA9B5" d="M60,33H6c-3.309,0-6-2.69-6-6V9c0-3.309,2.691-6,6-6h54c3.309,0,6,2.691,6,6v18C66,30.31,63.309,33,60,33
	 M6,5C3.794,5,2,6.794,2,9v18c0,2.206,1.794,4,4,4h54c2.206,0,4-1.794,4-4V9c0-2.206-1.794-4-4-4H6z"/>
<path fill="#FFFFFF" d="M50.53,31.025c0,2.195,1.779,3.975,3.975,3.975s3.974-1.78,3.974-3.975c0-2.195-1.778-3.975-3.974-3.975
	S50.53,28.831,50.53,31.025"/>
<path fill="#9FA9B5" d="M54.505,27.051c2.194,0,3.975,1.78,3.975,3.976c0,2.194-1.78,3.974-3.975,3.974
	c-2.195,0-3.976-1.779-3.976-3.974C50.529,28.831,52.31,27.051,54.505,27.051 M54.505,25.051c-3.294,0-5.976,2.68-5.976,5.976
	c0,3.294,2.682,5.974,5.976,5.974s5.975-2.68,5.975-5.974C60.479,27.731,57.799,25.051,54.505,25.051"/>
<path fill="#9FA9B5" d="M64,38H2c-0.553,0-1-0.447-1-1c0-0.553,0.447-1,1-1h62c0.553,0,1,0.447,1,1C65,37.553,64.553,38,64,38"/>
<path fill="#FFFFFF" d="M51,9h14v13H51c-1.105,0-2-0.895-2-2v-9C49,9.896,49.895,9,51,9"/>
<path fill="#9FA9B5" d="M65,23H51c-1.654,0-3-1.346-3-3v-9c0-1.654,1.346-3,3-3h14c0.553,0,1,0.447,1,1v13
	C66,22.553,65.553,23,65,23 M51,10c-0.552,0-1,0.448-1,1v9c0,0.552,0.448,1,1,1h13V10H51z"/>
<path fill="#FFFFFF" d="M39,9h4c1.105,0,2,0.896,2,2v21h-8V11C37,9.896,37.895,9,39,9"/>
<path fill="#9FA9B5" d="M45,33h-8c-0.553,0-1-0.447-1-1V11c0-1.654,1.346-3,3-3h4c1.654,0,3,1.346,3,3v21C46,32.553,45.553,33,45,33
	 M38,31h6V11c0-0.552-0.448-1-1-1h-4c-0.552,0-1,0.448-1,1V31z"/>
<path fill="#FFFFFF" d="M23,18h8c1.105,0,2-0.895,2-2v-5c0-1.104-0.895-2-2-2h-8c-1.105,0-2,0.896-2,2v5C21,17.105,21.895,18,23,18"
	/>
<path fill="#9FA9B5" d="M31,19h-8c-1.654,0-3-1.346-3-3v-5c0-1.654,1.346-3,3-3h8c1.654,0,3,1.346,3,3v5C34,17.654,32.654,19,31,19
	 M23,10c-0.552,0-1,0.448-1,1v5c0,0.552,0.448,1,1,1h8c0.552,0,1-0.448,1-1v-5c0-0.552-0.448-1-1-1H23z"/>
<path fill="#FFFFFF" d="M7,18h8c1.105,0,2-0.895,2-2v-5c0-1.104-0.895-2-2-2H7c-1.105,0-2,0.896-2,2v5C5,17.105,5.895,18,7,18"/>
<path fill="#9FA9B5" d="M15,19H7c-1.654,0-3-1.346-3-3v-5c0-1.654,1.346-3,3-3h8c1.654,0,3,1.346,3,3v5C18,17.654,16.654,19,15,19
	 M7,10c-0.552,0-1,0.448-1,1v5c0,0.552,0.448,1,1,1h8c0.552,0,1-0.448,1-1v-5c0-0.552-0.448-1-1-1H7z"/>
<line fill="#FFFFFF" x1="57" y1="4" x2="57" y2="1"/>
<path fill="#9FA9B5" d="M57,5c-0.553,0-1-0.447-1-1V1c0-0.553,0.447-1,1-1s1,0.447,1,1v3C58,4.553,57.553,5,57,5"/>
<path fill="#FFFFFF" d="M37,32H6c-2.761,0-5-2.239-5-5v-5h36V32z"/>
<path fill="#9FA9B5" d="M38,33H6c-3.309,0-6-2.69-6-6v-6h38V33z M2,23v4c0,2.206,1.794,4,4,4h30v-8H2z"/>
<path fill="#FFFFFF" d="M15.53,31.025c0,2.195,1.78,3.975,3.975,3.975c2.195,0,3.974-1.78,3.974-3.975
	c0-2.195-1.779-3.975-3.974-3.975C17.31,27.051,15.53,28.831,15.53,31.025"/>
<path fill="#9FA9B5" d="M19.504,27.051c2.195,0,3.975,1.78,3.975,3.976c0,2.194-1.78,3.974-3.975,3.974
	c-2.195,0-3.975-1.779-3.975-3.974C15.53,28.831,17.31,27.051,19.504,27.051 M19.504,25.051c-3.294,0-5.975,2.68-5.975,5.976
	C13.53,34.32,16.21,37,19.504,37c3.294,0,5.975-2.68,5.975-5.974C25.479,27.731,22.799,25.051,19.504,25.051"/>
</svg>
