<?xml version="1.0" encoding="utf-8"?>
<!-- Generator: Adobe Illustrator 16.0.0, SVG Export Plug-In . SVG Version: 6.00 Build 0)  -->
<!DOCTYPE svg PUBLIC "-//W3C//DTD SVG 1.1//EN" "http://www.w3.org/Graphics/SVG/1.1/DTD/svg11.dtd">
<svg version="1.1" id="Isolation_Mode" xmlns="http://www.w3.org/2000/svg" xmlns:xlink="http://www.w3.org/1999/xlink" x="0px"
	 y="0px" width="64px" height="38px" viewBox="0 0 64 38" enable-background="new 0 0 64 38" xml:space="preserve">
<path fill="#FFFFFF" d="M41.969,21.989l-5.471-6.221c-0.951-1.109-2.338-1.748-3.799-1.748H16.976C16,14.02,15,15.02,15,16.021
	v5.968"/>
<path fill="#9FA9B5" d="M41.969,22.989c-0.277,0-0.554-0.115-0.751-0.34l-5.471-6.222c-0.77-0.897-1.879-1.407-3.049-1.407H16.976
	c-0.429,0-0.976,0.562-0.976,1.001v5.968c0,0.553-0.447,1-1,1c-0.552,0-1-0.447-1-1v-5.968c0-1.543,1.447-3.001,2.976-3.001h15.722
	c1.754,0,3.417,0.764,4.559,2.096l5.463,6.213c0.364,0.415,0.324,1.047-0.091,1.411C42.44,22.907,42.204,22.989,41.969,22.989"/>
<path fill="#FFFFFF" d="M56,27.02c0-2.761-2.239-5-5-5H13c-2.761,0-5,2.239-5,5c0,2.761,2.239,5,5,5h38
	C53.761,32.02,56,29.781,56,27.02"/>
<path fill="#9FA9B5" d="M51,33.02H13c-3.309,0-6-2.69-6-6c0-3.309,2.691-6,6-6h38c3.309,0,6,2.691,6,6
	C57,30.33,54.309,33.02,51,33.02 M13,23.02c-2.206,0-4,1.794-4,4s1.794,4,4,4h38c2.206,0,4-1.794,4-4s-1.794-4-4-4H13z"/>
<path fill="#FFFFFF" d="M41.53,31.045c0,2.195,1.78,3.975,3.975,3.975c2.195,0,3.974-1.78,3.974-3.975
	c0-2.195-1.779-3.975-3.974-3.975C43.31,27.071,41.53,28.851,41.53,31.045"/>
<path fill="#9FA9B5" d="M45.504,27.071c2.195,0,3.975,1.78,3.975,3.976c0,2.194-1.78,3.974-3.975,3.974
	c-2.195,0-3.975-1.779-3.975-3.974C41.53,28.851,43.31,27.071,45.504,27.071 M45.504,25.071c-3.294,0-5.975,2.68-5.975,5.976
	c0,3.294,2.681,5.974,5.975,5.974c3.294,0,5.975-2.68,5.975-5.974C51.479,27.751,48.799,25.071,45.504,25.071"/>
<path fill="#FFFFFF" d="M13.53,31.045c0,2.195,1.78,3.975,3.975,3.975c2.195,0,3.974-1.78,3.974-3.975
	c0-2.195-1.779-3.975-3.974-3.975C15.31,27.071,13.53,28.851,13.53,31.045"/>
<path fill="#9FA9B5" d="M17.504,27.071c2.195,0,3.975,1.78,3.975,3.976c0,2.194-1.78,3.974-3.975,3.974
	c-2.195,0-3.975-1.779-3.975-3.974C13.53,28.851,15.31,27.071,17.504,27.071 M17.504,25.071c-3.294,0-5.975,2.68-5.975,5.976
	c0,3.294,2.681,5.974,5.975,5.974c3.294,0,5.975-2.68,5.975-5.974C23.479,27.751,20.799,25.071,17.504,25.071"/>
<line fill="#FFFFFF" x1="34" y1="26.02" x2="31" y2="26.02"/>
<path fill="#9FA9B5" d="M34,27.02h-3c-0.553,0-1-0.447-1-1c0-0.553,0.447-1,1-1h3c0.553,0,1,0.447,1,1
	C35,26.573,34.553,27.02,34,27.02"/>
<line fill="#FFFFFF" x1="63" y1="37.02" x2="1" y2="37.02"/>
<path fill="#9FA9B5" d="M63,38.02H1c-0.552,0-1-0.447-1-1c0-0.553,0.448-1,1-1h62c0.553,0,1,0.447,1,1
	C64,37.573,63.553,38.02,63,38.02"/>
</svg>
