<?xml version="1.0" encoding="utf-8"?>
<!-- Generator: Adobe Illustrator 18.1.1, SVG Export Plug-In . SVG Version: 6.00 Build 0)  -->
<svg version="1.1" id="Isolation_Mode" xmlns="http://www.w3.org/2000/svg" xmlns:xlink="http://www.w3.org/1999/xlink" x="0px" y="0px" viewBox="-287 462 64 38" enable-background="new -287 462 64 38" xml:space="preserve" class="transportIcon carIcon">
          <path class="transportPath" d="M-256,489h3c0.6,0,1-0.4,1-1c0-0.5-0.4-1-1-1h-3c-0.5,0-1,0.5-1,1C-257,488.6-256.5,489-256,489z M-224,498h-14.2c1.1-0.7,1.9-1.8,2.3-3c3.2-0.1,5.9-2.7,5.9-6c0-3.3-2.7-6-6-6h-8.6l-5.2-5.9c-1.1-1.3-2.8-2.1-4.6-2.1H-270c-1.5,0-3,1.5-3,3v5h-1c-3.3,0-6,2.7-6,6c0,2.9,2.1,5.3,4.8,5.9c0.4,1.3,1.3,2.4,2.4,3.1H-286c-0.5,0-1,0.5-1,1c0,0.6,0.5,1,1,1h62c0.6,0,1-0.4,1-1S-223.4,498-224,498z M-271,478c0-0.4,0.5-1,1-1h15.7c1.2,0,2.3,0.5,3.1,1.4l4,4.6H-271V478z M-275.5,492.7c-1.5-0.6-2.5-2-2.5-3.7c0-2.2,1.8-4,4-4h38c2.2,0,4,1.8,4,4c0,2.1-1.5,3.7-3.5,4c0-3.3-2.7-5.9-6-5.9s-5.9,2.7-6,5.9h-16c0-3.3-2.7-5.9-6-5.9C-272.7,487.1-275.3,489.6-275.5,492.7z M-269.5,497c-2.2,0-4-1.8-4-4c0-2.2,1.8-4,4-4c2.2,0,4,1.8,4,4C-265.5,495.2-267.3,497-269.5,497z M-266.2,498c1.1-0.7,1.9-1.8,2.3-3h16.7c0.4,1.2,1.2,2.3,2.3,3H-266.2z M-241.5,497c-2.2,0-4-1.8-4-4c0-2.2,1.8-4,4-4s4,1.8,4,4C-237.5,495.2-239.3,497-241.5,497z"/>
        </svg>
