<?xml version="1.0" encoding="utf-8"?>
<!-- Generator: Adobe Illustrator 18.1.1, SVG Export Plug-In . SVG Version: 6.00 Build 0)  -->
<svg version="1.1" id="Layer_1" xmlns="http://www.w3.org/2000/svg" xmlns:xlink="http://www.w3.org/1999/xlink" x="0px" y="0px" viewBox="-281 462 75.5 38" enable-background="new -281 462 75.5 38" xml:space="preserve" class="transportIcon planeIcon">
          <path class="transportPath" d="M-216.2,486.8c1.2,0,2.3,0.7,2.6,1.7l0.4,1.4l1.4,0.4c1.6,0.4,2.7,1.7,2.7,3.2c0,1.7-2,3.3-3.2,3.3c-2,0-9.5,0-9.5,0c-1.8,0-3.2-1.2-3.2-2.8c0-1.5,1.5-2.8,3.2-2.8c0.1,0,0.2,0,0.3,0l2.5,0.2l0.2-2.5C-218.7,487.7-217.5,486.8-216.2,486.8 M-216.2,484.3c-2.7,0-4.9,1.9-5.1,4.4c-0.2,0-0.4,0-0.6,0c-3.2,0-5.7,2.4-5.7,5.3s2.6,5.3,5.7,5.3h0h0c0,0,7.4,0,9.5,0c2.5,0,5.7-2.7,5.7-5.8c0-2.6-1.9-4.9-4.5-5.6C-211.7,485.8-213.8,484.3-216.2,484.3L-216.2,484.3z M-267.8,465.3c1.2,0,2.3,0.7,2.6,1.7l0.4,1.4l1.4,0.4c1.6,0.4,2.7,1.7,2.7,3.2c0,1.7-2,3.3-3.2,3.3c-2,0-9.5,0-9.5,0c-1.8,0-3.2-1.2-3.2-2.8c0-1.5,1.5-2.8,3.2-2.8c0.1,0,0.2,0,0.3,0l2.5,0.2l0.2-2.5C-270.3,466.2-269.2,465.3-267.8,465.3 M-267.8,462.8c-2.7,0-4.9,1.9-5.1,4.4c-0.2,0-0.4,0-0.6,0c-3.2,0-5.7,2.4-5.7,5.3s2.6,5.3,5.7,5.3h0h0c0,0,7.4,0,9.5,0 c2.5,0,5.7-2.7,5.7-5.8c0-2.6-1.9-4.9-4.5-5.6C-263.4,464.3-265.4,462.8-267.8,462.8L-267.8,462.8z M-251.6,465.3L-251.6,465.3 c0.3,0,0.7,0.2,1.2,0.5l0.1,0l12.7,8.8l1.3,0.9l1.4-0.8l9.7-5.5c0.3-0.2,0.7-0.3,1.1-0.3c0.6,0,1,0.2,1.2,0.5c0,0.1,0.2,0.3,0.1,0.7c-0.1,0.5-0.5,1-1,1.3l-9.7,5.5l-1.4,0.8l0.2,1.6l1.4,15.1l0,0.1c0,1.2,0,1.3-0.8,1.7c-0.3,0.2-0.8,0.4-1.1,0.4c-0.1,0-0.4-0.2-0.8-0.8l-5.3-11.5l-1.1-2.5l-2.4,1.3l-8,4.5l-1.2,0.7l-0.1,1.4l-0.2,4.6l-2.5-5.7l-0.1-0.3l-0.2-0.2l-3.8-4.9l4.2,2.3l1.2,0.7l1.2-0.7l8-4.5l2.5-1.4l-1.7-2.3l-7.5-10.2c-0.4-0.7-0.4-1-0.4-1c0,0,0,0,0,0c0.1-0.2,0.7-0.5,0.9-0.7C-252.2,465.4-251.8,465.3-251.6,465.3 M-251.6,462.8c-0.6,0-1.3,0.2-2.1,0.6c-1.1,0.6-3.4,1.9-1.4,5.2l7.6,10.3l-8,4.5l-5.5-3c-0.4-0.2-0.8-0.3-1.1-0.3c-0.3,0-0.6,0.1-0.9,0.3c-0.3,0.2-2.3,1-1.4,2.4l5.4,7l3.5,8.1c0.3,0.5,0.6,0.7,1,0.7c0.5,0,1.1-0.3,1.8-0.6c0.8-0.5,0.8-0.9,0.8-1.9l0.2-6.1l8-4.5l5.4,11.6c1,1.7,2.1,2.2,3,2.2c0.9,0,1.8-0.5,2.3-0.8c2.1-1.2,2.1-2.7,2.1-4.1l-1.5-15.3l9.7-5.5c1.9-1.1,3-3.5,1.9-5.4c-0.7-1.2-2-1.7-3.4-1.7c-0.8,0-1.7,0.2-2.4,0.6l-9.7,5.4l-12.8-8.9C-249.8,463.3-250.5,462.8-251.6,462.8L-251.6,462.8z"/>
        </svg>
