<?xml version="1.0" encoding="utf-8"?>
<!-- Generator: Adobe Illustrator 16.0.0, SVG Export Plug-In . SVG Version: 6.00 Build 0)  -->
<!DOCTYPE svg PUBLIC "-//W3C//DTD SVG 1.1//EN" "http://www.w3.org/Graphics/SVG/1.1/DTD/svg11.dtd">
<svg version="1.1" id="Layer_1" xmlns="http://www.w3.org/2000/svg" xmlns:xlink="http://www.w3.org/1999/xlink" x="0px" y="0px"
	 width="75.5px" height="38px" viewBox="0 0 75.5 38" enable-background="new 0 0 75.5 38" xml:space="preserve">
<path fill-rule="evenodd" clip-rule="evenodd" fill="none" d="M35.229-6.695c-4.269,0-7.729-3.487-7.729-7.789"/>
<g>
	<path fill-rule="evenodd" clip-rule="evenodd" fill="none" stroke="#9CABB7" stroke-width="2" stroke-miterlimit="10" d="
		M17.278,15.451v0.026H8.482H7.226c-2.775,0-5.026-1.648-5.026-3.682c0-2.032,2.25-3.681,5.026-3.681
		c0.625,0,1.222,0.087,1.774,0.24C8.913,8.102,8.859,7.837,8.859,7.562c0-1.779,1.969-3.221,4.397-3.221
		c2.291,0,4.171,1.282,4.377,2.92c2.653,0.341,4.669,2.034,4.669,4.075C22.303,13.468,20.104,15.222,17.278,15.451z"/>
</g>
<g>
	<path fill-rule="evenodd" clip-rule="evenodd" fill="none" stroke="#9CABB7" stroke-width="2" stroke-miterlimit="10" d="
		M68.637,34.831v0.031h-8.289h-1.184c-2.616,0-4.736-1.913-4.736-4.272s2.12-4.272,4.736-4.272c0.59,0,1.152,0.103,1.672,0.279
		c-0.083-0.294-0.133-0.602-0.133-0.92c0-2.063,1.855-3.737,4.144-3.737c2.158,0,3.929,1.488,4.125,3.389
		c2.5,0.396,4.401,2.359,4.401,4.729C73.373,32.53,71.3,34.565,68.637,34.831z"/>
</g>
<g>
	<path fill-rule="evenodd" clip-rule="evenodd" fill="#9CABB7" stroke="#9CABB7" stroke-miterlimit="10" d="M57.909,11.621
		l-9.695,5.476l1.454,15.264c-0.013,1.422,0.073,2.879-2.073,4.089c-1.093,0.616-3.369,1.899-5.312-1.386l-5.361-11.591
		l-8.001,4.519l-0.238,6.081c-0.06,1.006-0.007,1.382-0.858,1.858c-1.327,0.704-2.24,1.011-2.848-0.021l-3.513-8.11l-5.453-7.02
		c-0.841-1.422,1.137-2.184,1.439-2.4c0.584-0.366,1.224-0.386,2.042,0.065l5.527,2.989l8.046-4.515L25.448,6.588
		c-1.942-3.283,0.333-4.568,1.426-5.185c2.146-1.211,3.395-0.407,4.663,0.29l12.806,8.898l9.722-5.455
		c1.914-1.078,4.643-0.734,5.74,1.123C60.902,8.116,59.822,10.542,57.909,11.621z M23.401,26.532
		c-0.046-0.077-4.235-5.247-4.649-5.946l5.706,3.223l12.351-6.802L27.486,5.586c-0.254-0.378-0.456-1.352,0.683-1.993
		c0.438-0.244,1.512-0.074,2.294,0.409l13.405,9.116l11.479-6.321c0.806-0.454,2.031-0.064,2.438,0.622
		c0.408,0.689,0.12,1.881-0.684,2.335l-11.377,6.425l1.425,15.945c0.038,0.903-0.411,1.888-0.849,2.136
		c-1.245,0.701-1.819,0.062-2.08-0.436L38.688,20.15l-12.174,6.879l0.008,6.699C26.024,32.886,23.472,26.65,23.401,26.532z"/>
</g>
</svg>
