<?xml version="1.0" encoding="utf-8"?>
<!-- Generator: Adobe Illustrator 16.0.0, SVG Export Plug-In . SVG Version: 6.00 Build 0)  -->
<!DOCTYPE svg PUBLIC "-//W3C//DTD SVG 1.1//EN" "http://www.w3.org/Graphics/SVG/1.1/DTD/svg11.dtd">
<svg version="1.1" id="Isolation_Mode" xmlns="http://www.w3.org/2000/svg" xmlns:xlink="http://www.w3.org/1999/xlink" x="0px"
	 y="0px" width="66px" height="38px" viewBox="0 0 66 38" enable-background="new 0 0 66 38" xml:space="preserve">
<path fill="#FFFFFF" d="M52.255,7.072H6.002C3.24,7.072,1,9.311,1,12.072v18c0,2.761,2.24,5,5.002,5h53.935
	c3.632,0,6.08-3.951,4.649-7.277L56.871,9.98C56.079,8.14,54.264,7.072,52.255,7.072"/>
<path fill="#9CABB7" d="M59.936,36.072H6.002c-3.31,0-6.002-2.69-6.002-6v-18c0-3.309,2.692-6,6.002-6h46.253
	c2.481,0,4.602,1.346,5.535,3.513l7.714,17.812c0.824,1.918,0.613,4.13-0.563,5.918C63.803,35.042,61.933,36.072,59.936,36.072
	 M6.002,8.072c-2.207,0-4.002,1.794-4.002,4v18c0,2.206,1.795,4,4.002,4h53.934c1.342,0,2.557-0.677,3.334-1.856
	c0.807-1.225,0.955-2.73,0.397-4.026l-7.714-17.812c-0.612-1.423-2.029-2.306-3.698-2.306H6.002z"/>
<path fill="#9CABB7" d="M64.013,38.072h-62c-0.553,0-1-0.447-1-1c0-0.553,0.447-1,1-1h62c0.553,0,1,0.447,1,1
	C65.013,37.625,64.565,38.072,64.013,38.072"/>
<path fill="#FFFFFF" d="M56.013,12.072h1.754l5.64,13h-7.394c-1.105,0-2-0.895-2-2v-9C54.013,12.968,54.907,12.072,56.013,12.072"/>
<path fill="#9CABB7" d="M63.427,26.072c-0.005,0.001-0.013,0.001-0.02,0h-7.395c-1.654,0-3-1.346-3-3v-9c0-1.654,1.346-3,3-3h1.755
	c0.398,0,0.759,0.236,0.917,0.602l5.567,12.832c0.11,0.161,0.175,0.356,0.175,0.566C64.427,25.625,63.979,26.072,63.427,26.072
	 M56.013,13.072c-0.552,0-1,0.448-1,1v9c0,0.552,0.448,1,1,1h5.871l-4.772-11H56.013z"/>
<path fill="#FFFFFF" d="M45.013,25.072h3c1.105,0,2-0.895,2-2v-9c0-1.104-0.895-2-2-2h-3c-1.105,0-2,0.896-2,2v9
	C43.013,24.177,43.907,25.072,45.013,25.072"/>
<path fill="#9CABB7" d="M48.013,26.072h-3c-1.654,0-3-1.346-3-3v-9c0-1.654,1.346-3,3-3h3c1.654,0,3,1.346,3,3v9
	C51.013,24.726,49.667,26.072,48.013,26.072 M45.013,13.072c-0.552,0-1,0.448-1,1v9c0,0.552,0.448,1,1,1h3c0.552,0,1-0.448,1-1v-9
	c0-0.552-0.448-1-1-1H45.013z"/>
<path fill="#FFFFFF" d="M21.013,25.072H1v5c0,2.761,2.239,5,5.002,5h15.01V25.072z"/>
<path fill="#9CABB7" d="M21.013,36.072H6.002c-3.31,0-6.002-2.69-6.002-6v-5c0-0.553,0.447-1,1-1h20.013c0.552,0,1,0.447,1,1v10
	C22.013,35.625,21.565,36.072,21.013,36.072 M2,26.072v4c0,2.206,1.795,4,4.002,4h14.011v-8H2z"/>
<path fill="#FFFFFF" d="M23.013,12.072h14c1.105,0,2,0.896,2,2v21h-18v-21C21.013,12.968,21.908,12.072,23.013,12.072"/>
<path fill="#9CABB7" d="M39.013,36.072h-18c-0.553,0-1-0.447-1-1v-21c0-1.654,1.346-3,3-3h14c1.654,0,3,1.346,3,3v21
	C40.013,35.625,39.565,36.072,39.013,36.072 M22.013,34.072h16v-20c0-0.552-0.448-1-1-1h-14c-0.552,0-1,0.448-1,1V34.072z"/>
<line fill="#FFFFFF" x1="30.013" y1="12.072" x2="30.013" y2="35.072"/>
<path fill="#9CABB7" d="M30.013,36.072c-0.553,0-1-0.447-1-1v-23c0-0.553,0.447-1,1-1c0.553,0,1,0.447,1,1v23
	C31.013,35.625,30.565,36.072,30.013,36.072"/>
<path fill="#FFFFFF" d="M7.013,21.072h8c1.105,0,2-0.895,2-2v-5c0-1.104-0.895-2-2-2h-8c-1.105,0-2,0.896-2,2v5
	C5.013,20.177,5.908,21.072,7.013,21.072"/>
<path fill="#9CABB7" d="M15.013,22.072h-8c-1.654,0-3-1.346-3-3v-5c0-1.654,1.346-3,3-3h8c1.654,0,3,1.346,3,3v5
	C18.013,20.726,16.667,22.072,15.013,22.072 M7.013,13.072c-0.552,0-1,0.448-1,1v5c0,0.552,0.448,1,1,1h8c0.552,0,1-0.448,1-1v-5
	c0-0.552-0.448-1-1-1H7.013z"/>
</svg>
