<?xml version="1.0" encoding="utf-8"?>
<!-- Generator: Adobe Illustrator 18.1.1, SVG Export Plug-In . SVG Version: 6.00 Build 0)  -->
<svg version="1.1" id="Isolation_Mode" xmlns="http://www.w3.org/2000/svg" xmlns:xlink="http://www.w3.org/1999/xlink" x="0px" y="0px" viewBox="-286 462 66 38" enable-background="new -286 462 66 38" xml:space="preserve" class="transportIcon subwayIcon">
          <path class="transportPath" d="M-222,498.1h-4.1c2,0,3.9-1,5-2.8c1.2-1.8,1.4-4,0.6-5.9l-1.1-2.5c0,0,0,0,0,0l-0.2-0.4l-0.2-0.3l-6.3-14.6c-0.9-2.2-3-3.5-5.5-3.5H-280c-3.3,0-6,2.7-6,6v18c0,3.3,2.7,6,6,6h-4c-0.5,0-1,0.4-1,1c0,0.5,0.5,1,1,1h62c0.5,0,1-0.5,1-1S-221.4,498.1-222,498.1z M-228.9,475.1l4.8,11h-5.9c-0.5,0-1-0.5-1-1v-9c0-0.5,0.5-1,1-1H-228.9z M-266,496.1h-14c-2.2,0-4-1.8-4-4v-4h18V496.1z M-257,496.1h-7v-20c0-0.5,0.5-1,1-1h6V496.1z M-248,496.1h-7v-21h6c0.5,0,1,0.5,1,1V496.1z M-249,473.1h-14c-1.7,0-3,1.3-3,3v10h-18v-12c0-2.2,1.8-4,4-4h46.2c1.7,0,3.1,0.9,3.7,2.3l0.3,0.7h-0.2c-1.6,0-3,1.3-3,3v9c0,1.7,1.4,3,3,3h6.7l0.9,2.1c0.6,1.3,0.4,2.8-0.4,4c-0.8,1.2-2,1.9-3.3,1.9H-246v-20C-246,474.4-247.3,473.1-249,473.1z M-241,488.1h3c1.7,0,3-1.3,3-3v-9c0-1.7-1.3-3-3-3h-3c-1.6,0-3,1.3-3,3v9C-244,486.7-242.6,488.1-241,488.1z M-242,476.1c0-0.5,0.5-1,1-1h3c0.5,0,1,0.5,1,1v9c0,0.5-0.5,1-1,1h-3c-0.5,0-1-0.5-1-1V476.1z M-271,473.1h-8c-1.7,0-3,1.3-3,3v5c0,1.7,1.3,3,3,3h8c1.7,0,3-1.3,3-3v-5C-268,474.4-269.3,473.1-271,473.1z M-270,481.1c0,0.5-0.5,1-1,1h-8c-0.5,0-1-0.5-1-1v-5c0-0.5,0.5-1,1-1h8c0.5,0,1,0.5,1,1V481.1z"/>
        </svg>
